<svg xmlns="http://www.w3.org/2000/svg" width="76" height="76" fill="none"><path fill="#83B3D3" d="M71.08 49.7H5.1C2.81 49.7 1 51.6 1 54v3.5c0 2.4 1.9 4.3 4.11 4.3h.9v1.1c0 5.5 4.31 10.1 9.63 10.1h44.7c5.32 0 9.63-4.5 9.63-10.1v-1.1h.9c2.31 0 4.12-1.9 4.12-4.3V54a4 4 0 0 0-3.91-4.3Zm-3.91 13.2c0 3.9-3.01 7-6.72 7H15.64c-3.71 0-6.72-3.2-6.72-7v-1.1h58.25v1.1Zm5.1-5.4c0 .7-.6 1.3-1.2 1.3H5.02c-.7 0-1.2-.6-1.2-1.3V54c0-.7.6-1.3 1.2-1.3h65.97c.7 0 1.2.6 1.2 1.3.1 0 .1 3.5.1 3.5ZM16.64 41.4l5.41 4.1 5.32-4.1 5.3 4.1L38 41.4l5.42 4.1 5.31-4.1 5.31 4.1 5.42-4.1 5.31 4.1 6.22-4.7-1.7-2.5-4.52 3.4-5.31-4.1-5.42 4.1-5.31-4.1-5.31 4.1L38 37.6l-5.31 4.1-5.31-4.1-5.32 4.1-5.41-4.1-5.31 4.1-4.52-3.4-1.7 2.5 6.22 4.7 5.3-4.1Zm-7.62-6.9h60.95c0-.6.1-1.2.1-1.9v-1.2C69.37 15.7 55.34 3 38.1 3 20.75 3 6.71 15.7 6.01 31.5v1.2c0 .6 0 1.2.1 1.8h2.91ZM38.09 6c15.64 0 28.47 11.3 29.08 25.5H9.02C9.62 17.4 22.45 6 38.09 6Z"/><path fill="#83B3D3" d="M38.1 20.3c1.05 0 1.9-.9 1.9-2s-.85-2-1.9-2c-1.06 0-1.91.9-1.91 2s.85 2 1.9 2Zm-7.83-5.1c1.06 0 1.9-.9 1.9-2s-.84-2-1.9-2c-1.05 0-1.9.9-1.9 2s.85 2 1.9 2Zm15.54 0c1.05 0 1.9-.9 1.9-2s-.85-2-1.9-2c-1.05 0-1.9.9-1.9 2s.85 2 1.9 2Z"/></svg>