<svg xmlns="http://www.w3.org/2000/svg" width="76" height="76" fill="none"><path fill="#83B3D3" d="M30.62 67h16.06V43.2H30.62V67Zm2.91-20.9h10.14v18H33.53v-18Z"/><path fill="#83B3D3" d="m73.9 41.3 2.1-2.1-9.94-9.9V2H52.1v13.6L38.45 2 1 39.2l2.1 2.1 7.84-7.8v37.6H6.92V74h64.16v-2.9h-5.12V33.5l7.93 7.8ZM63.04 71.1h-49.2V30.5l24.6-24.4 24.6 24.4v40.6Zm0-44.7-7.93-7.9V4.9h7.93v21.5Z"/><path fill="#83B3D3" d="M30.82 29.1c0 4.3 3.51 7.7 7.73 7.7a7.8 7.8 0 0 0 7.83-7.7c0-4.3-3.51-7.7-7.83-7.7a7.72 7.72 0 0 0-7.73 7.7Zm7.83-5a5 5 0 0 1 5.02 4.9c0 2.7-2.2 4.9-5.02 4.9a5 5 0 0 1-5.02-4.9c0-2.7 2.2-4.9 5.02-4.9ZM20.98 43.2h-3.01v3.9h3.01v-3.9Zm5.92 0h-3v3.9h3v-3.9Zm-5.92 6h-3.01v3.9h3.01v-3.9Zm5.92 0h-3v3.9h3v-3.9Zm26.1-6h-3v3.9h3v-3.9Zm5.93 0h-3.01v3.9h3.01v-3.9Zm-5.93 6h-3v3.9h3v-3.9Zm5.93 0h-3.01v3.9h3.01v-3.9Z"/></svg>